<svg xmlns="http://www.w3.org/2000/svg" width="60" height="24" viewBox="0 0 60 24">
  <!-- Compact header version -->
  <!-- Left C (Blue) -->
  <path d="M2 16C2 18.8 4.2 21 7 21C7.8 21 8.5 20.7 9 20.2L8.2 19.4C7.9 19.6 7.5 19.7 7 19.7C5.4 19.7 4.1 18.4 4.1 16.8V7.2C4.1 5.6 5.4 4.3 7 4.3C7.5 4.3 7.9 4.4 8.2 4.6L9 3.8C8.5 3.3 7.8 3 7 3C4.2 3 2 5.2 2 8V16Z" fill="#253989"/>
  
  <!-- White line -->
  <rect x="9.5" y="17.5" width="3" height="1" fill="white"/>
  
  <!-- Center C (Red) -->
  <path d="M12.5 17C12.5 19.8 14.7 22 17.5 22C18.3 22 19 21.7 19.5 21.2L18.7 20.4C18.4 20.6 18 20.7 17.5 20.7C15.9 20.7 14.6 19.4 14.6 17.8V8.2C14.6 6.6 15.9 5.3 17.5 5.3C18 5.3 18.4 5.4 18.7 5.6L19.5 4.8C19 4.3 18.3 4 17.5 4C14.7 4 12.5 6.2 12.5 9V17Z" fill="#EE1823"/>
  
  <!-- Small speech bubble -->
  <ellipse cx="17" cy="12.5" rx="1" ry="0.8" fill="white"/>
  <path d="M16.7 13.3L16 14.5L17 14Z" fill="white"/>
  
  <!-- White line -->
  <rect x="20" y="17.5" width="3" height="1" fill="white"/>
  
  <!-- Right C (Blue) -->
  <path d="M23 16C23 18.8 25.2 21 28 21C28.8 21 29.5 20.7 30 20.2L29.2 19.4C28.9 19.6 28.5 19.7 28 19.7C26.4 19.7 25.1 18.4 25.1 16.8V7.2C25.1 5.6 26.4 4.3 28 4.3C28.5 4.3 28.9 4.4 29.2 4.6L30 3.8C29.5 3.3 28.8 3 28 3C25.2 3 23 5.2 23 8V16Z" fill="#253989"/>
</svg>