<svg width="80" height="35" viewBox="0 0 80 35" fill="none" xmlns="http://www.w3.org/2000/svg">
  <!-- Left C (Blue) -->
  <path d="M3 25C3 28.8 6.2 32 10 32C11.5 32 12.8 31.2 13.7 30L11.8 27.8C11.4 28.1 10.7 28.3 10 28.3C8.5 28.3 7.3 27.1 7.3 25.7V9.3C7.3 7.9 8.5 6.7 10 6.7C10.7 6.7 11.4 6.9 11.8 7.2L13.7 5C12.8 3.8 11.5 3 10 3C6.2 3 3 6.2 3 10V25Z" fill="#253989"/>
  
  <!-- Connecting line (white horizontal line between left C and center C) -->
  <line x1="13.5" y1="27" x2="17" y1="27" stroke="white" stroke-width="1.5"/>
  
  <!-- Center C (Red) with speech bubble -->
  <g>
    <path d="M17 27C17 30.8 20.2 34 24 34C25.5 34 26.8 33.2 27.7 32L25.8 29.8C25.4 30.1 24.7 30.3 24 30.3C22.5 30.3 21.3 29.1 21.3 27.7V11.3C21.3 9.9 22.5 8.7 24 8.7C24.7 8.7 25.4 8.9 25.8 9.2L27.7 7C26.8 5.8 25.5 5 24 5C20.2 5 17 8.2 17 12V27Z" fill="#EE1823"/>
    
    <!-- Speech bubble inside red C -->
    <g>
      <!-- Main bubble -->
      <ellipse cx="22" cy="19" rx="2.5" ry="2" fill="white"/>
      <!-- Tail pointing down and left -->
      <path d="M21 21L19.5 24L22 22.5Z" fill="white"/>
    </g>
  </g>
  
  <!-- Connecting line (white horizontal line between center C and right C) -->
  <line x1="27" y1="27" x2="31" y1="27" stroke="white" stroke-width="1.5"/>
  
  <!-- Right C (Blue) -->
  <path d="M31 25C31 28.8 34.2 32 38 32C39.5 32 40.8 31.2 41.7 30L39.8 27.8C39.4 28.1 38.7 28.3 38 28.3C36.5 28.3 35.3 27.1 35.3 25.7V9.3C35.3 7.9 36.5 6.7 38 6.7C38.7 6.7 39.4 6.9 39.8 7.2L41.7 5C40.8 3.8 39.5 3 38 3C34.2 3 31 6.2 31 10V25Z" fill="#253989"/>
</svg>