<svg width="200" height="60" viewBox="0 0 200 60" fill="none" xmlns="http://www.w3.org/2000/svg">
  <!-- First C (Blue) -->
  <path d="M10 45C10 51.6 15.4 57 22 57C25.3 57 28.3 55.5 30.5 53L26.2 47.8C25 48.7 23.5 49.3 22 49.3C19.7 49.3 17.8 47.4 17.8 45V15C17.8 12.6 19.7 10.7 22 10.7C23.5 10.7 25 11.3 26.2 12.2L30.5 7C28.3 4.5 25.3 3 22 3C15.4 3 10 8.4 10 15V45Z" fill="#293889"/>
  
  <!-- Second C (Red) -->
  <path d="M35 45C35 51.6 40.4 57 47 57C50.3 57 53.3 55.5 55.5 53L51.2 47.8C50 48.7 48.5 49.3 47 49.3C44.7 49.3 42.8 47.4 42.8 45V15C42.8 12.6 44.7 10.7 47 10.7C48.5 10.7 50 11.3 51.2 12.2L55.5 7C53.3 4.5 50.3 3 47 3C40.4 3 35 8.4 35 15V45Z" fill="#E91F2C"/>
  
  <!-- Third C (Blue) -->
  <path d="M60 45C60 51.6 65.4 57 72 57C75.3 57 78.3 55.5 80.5 53L76.2 47.8C75 48.7 73.5 49.3 72 49.3C69.7 49.3 67.8 47.4 67.8 45V15C67.8 12.6 69.7 10.7 72 10.7C73.5 10.7 75 11.3 76.2 12.2L80.5 7C78.3 4.5 75.3 3 72 3C65.4 3 60 8.4 60 15V45Z" fill="#293889"/>
  
  <!-- Company Text -->
  <text x="95" y="35" font-family="Inter, sans-serif" font-size="16" font-weight="600" fill="#00003D">
    COGNITION &amp; COMPETENCE
  </text>
  <text x="95" y="52" font-family="Inter, sans-serif" font-size="16" font-weight="600" fill="#00003D">
    CONSULTANCY
  </text>
</svg>