<svg width="80" height="32" viewBox="0 0 80 32" fill="none" xmlns="http://www.w3.org/2000/svg">
  <!-- First C (Blue) -->
  <path d="M4 22C4 26.4 7.6 30 12 30C14.2 30 16.2 28.9 17.5 27.2L15.1 24.8C14.4 25.4 13.2 25.8 12 25.8C10.3 25.8 8.9 24.4 8.9 22.7V9.3C8.9 7.6 10.3 6.2 12 6.2C13.2 6.2 14.4 6.6 15.1 7.2L17.5 4.8C16.2 3.1 14.2 2 12 2C7.6 2 4 5.6 4 10V22Z" fill="#003399"/>
  
  <!-- Second C (Red) with communication bubble -->
  <g>
    <path d="M24 22C24 26.4 27.6 30 32 30C34.2 30 36.2 28.9 37.5 27.2L35.1 24.8C34.4 25.4 33.2 25.8 32 25.8C30.3 25.8 28.9 24.4 28.9 22.7V9.3C28.9 7.6 30.3 6.2 32 6.2C33.2 6.2 34.4 6.6 35.1 7.2L37.5 4.8C36.2 3.1 34.2 2 32 2C27.6 2 24 5.6 24 10V22Z" fill="#FF0000"/>
    <!-- Communication bubble element -->
    <circle cx="31" cy="15" r="1.5" fill="white"/>
    <path d="M29.5 17.5L31 19L32.5 17.5" stroke="white" stroke-width="0.8" fill="none"/>
  </g>
  
  <!-- Third C (Blue) -->
  <path d="M44 22C44 26.4 47.6 30 52 30C54.2 30 56.2 28.9 57.5 27.2L55.1 24.8C54.4 25.4 53.2 25.8 52 25.8C50.3 25.8 48.9 24.4 48.9 22.7V9.3C48.9 7.6 50.3 6.2 52 6.2C53.2 6.2 54.4 6.6 55.1 7.2L57.5 4.8C56.2 3.1 54.2 2 52 2C47.6 2 44 5.6 44 10V22Z" fill="#003399"/>
</svg>