<svg width="240" height="50" viewBox="0 0 240 50" fill="none" xmlns="http://www.w3.org/2000/svg">
  <!-- First C (Blue) -->
  <path d="M5 35C5 40.5 9.5 45 15 45C17.5 45 19.8 43.8 21.2 42L18.5 38.5C17.8 39 16.9 39.3 15.9 39.3C14.2 39.3 12.8 37.9 12.8 36.2V13.8C12.8 12.1 14.2 10.7 15.9 10.7C16.9 10.7 17.8 11 18.5 11.5L21.2 8C19.8 6.2 17.5 5 15 5C9.5 5 5 9.5 5 15V35Z" fill="#293889"/>
  
  <!-- Second C (Red) -->
  <path d="M25 35C25 40.5 29.5 45 35 45C37.5 45 39.8 43.8 41.2 42L38.5 38.5C37.8 39 36.9 39.3 35.9 39.3C34.2 39.3 32.8 37.9 32.8 36.2V13.8C32.8 12.1 34.2 10.7 35.9 10.7C36.9 10.7 37.8 11 38.5 11.5L41.2 8C39.8 6.2 37.5 5 35 5C29.5 5 25 9.5 25 15V35Z" fill="#E91F2C"/>
  
  <!-- Third C (Blue) -->
  <path d="M45 35C45 40.5 49.5 45 55 45C57.5 45 59.8 43.8 61.2 42L58.5 38.5C57.8 39 56.9 39.3 55.9 39.3C54.2 39.3 52.8 37.9 52.8 36.2V13.8C52.8 12.1 54.2 10.7 55.9 10.7C56.9 10.7 57.8 11 58.5 11.5L61.2 8C59.8 6.2 57.5 5 55 5C49.5 5 45 9.5 45 15V35Z" fill="#293889"/>
  
  <!-- Company Text -->
  <text x="75" y="22" font-family="Inter, sans-serif" font-size="11" font-weight="600" fill="#00003D">
    COGNITION &amp; COMPETENCE
  </text>
  <text x="75" y="35" font-family="Inter, sans-serif" font-size="11" font-weight="600" fill="#00003D">
    CONSULTANCY
  </text>
</svg>