<svg width="32" height="32" viewBox="0 0 32 32" fill="none" xmlns="http://www.w3.org/2000/svg">
  <!-- Simple 3 C favicon - clean design -->
  
  <!-- First C (Blue) -->
  <path d="M2 22C2 25.3 4.7 28 8 28C9.1 28 10.1 27.5 10.8 26.7L9.4 25.3C9 25.6 8.5 25.7 8 25.7C6.3 25.7 4.9 24.3 4.9 22.6V9.4C4.9 7.7 6.3 6.3 8 6.3C8.5 6.3 9 6.4 9.4 6.7L10.8 5.3C10.1 4.5 9.1 4 8 4C4.7 4 2 6.7 2 10V22Z" fill="#293889"/>
  
  <!-- Center C (Red) -->
  <path d="M12 22C12 25.3 14.7 28 18 28C19.1 28 20.1 27.5 20.8 26.7L19.4 25.3C19 25.6 18.5 25.7 18 25.7C16.3 25.7 14.9 24.3 14.9 22.6V9.4C14.9 7.7 16.3 6.3 18 6.3C18.5 6.3 19 6.4 19.4 6.7L20.8 5.3C20.1 4.5 19.1 4 18 4C14.7 4 12 6.7 12 10V22Z" fill="#E91F2C"/>
  
  <!-- Right C (Blue) -->
  <path d="M22 22C22 25.3 24.7 28 28 28C29.1 28 30.1 27.5 30.8 26.7L29.4 25.3C29 25.6 28.5 25.7 28 25.7C26.3 25.7 24.9 24.3 24.9 22.6V9.4C24.9 7.7 26.3 6.3 28 6.3C28.5 6.3 29 6.4 29.4 6.7L30.8 5.3C30.1 4.5 29.1 4 28 4C24.7 4 22 6.7 22 10V22Z" fill="#293889"/>
</svg>