<svg width="64" height="64" viewBox="0 0 64 64" fill="none" xmlns="http://www.w3.org/2000/svg">
  <!-- Round background (transparent) -->
  <circle cx="32" cy="32" r="30" fill="transparent"/>
  
  <!-- First C (Blue) -->
  <path d="M12 44C12 50.6 17.4 56 24 56C26.4 56 28.6 55.1 30.2 53.5L27.6 50.9C26.8 51.5 25.4 52 24 52C19.6 52 16.2 48.6 16.2 44V20C16.2 15.6 19.6 12.2 24 12.2C25.4 12.2 26.8 12.7 27.6 13.3L30.2 10.7C28.6 9.1 26.4 8.2 24 8.2C17.4 8.2 12 13.6 12 20V44Z" fill="#253989"/>
  
  <!-- Second C (Red) with speech bubble -->
  <g>
    <path d="M20 46C20 52.6 25.4 58 32 58C34.4 58 36.6 57.1 38.2 55.5L35.6 52.9C34.8 53.5 33.4 54 32 54C27.6 54 24.2 50.6 24.2 46V22C24.2 17.6 27.6 14.2 32 14.2C33.4 14.2 34.8 14.7 35.6 15.3L38.2 12.7C36.6 11.1 34.4 10.2 32 10.2C25.4 10.2 20 15.6 20 22V46Z" fill="#EE1823"/>
    <!-- Small speech bubble -->
    <circle cx="31" cy="32" r="2" fill="white"/>
    <path d="M30 34L28.5 37L31.5 35Z" fill="white"/>
  </g>
  
  <!-- Third C (Blue) -->
  <path d="M28 44C28 50.6 33.4 56 40 56C42.4 56 44.6 55.1 46.2 53.5L43.6 50.9C42.8 51.5 41.4 52 40 52C35.6 52 32.2 48.6 32.2 44V20C32.2 15.6 35.6 12.2 40 12.2C41.4 12.2 42.8 12.7 43.6 13.3L46.2 10.7C44.6 9.1 42.4 8.2 40 8.2C33.4 8.2 28 13.6 28 20V44Z" fill="#253989"/>
</svg>